HIERARCHY
ROOT Hips
{
	OFFSET 0.000000 0.000000 0.000000
	CHANNELS 6 Xposition Yposition Zposition Zrotation Yrotation Xrotation
	JOINT Spine
	{
		OFFSET 0.000000 0.000000 -0.744707
		CHANNELS 6 Xposition Yposition Zposition Zrotation Yrotation Xrotation
		JOINT Spine1
		{
			OFFSET 0.000000 0.000000 -2.032240
			CHANNELS 6 Xposition Yposition Zposition Zrotation Yrotation Xrotation
			JOINT Neck
			{
				OFFSET 0.000000 0.000000 -2.213880
				CHANNELS 6 Xposition Yposition Zposition Zrotation Yrotation Xrotation
				JOINT Head
				{
					OFFSET 0.000000 0.181636 -1.407680
					CHANNELS 6 Xposition Yposition Zposition Zrotation Yrotation Xrotation
					End Site
					{
						OFFSET 0.000000 0.000000 -1.816356
					}
				}
			}
			JOINT LeftShoulder
			{
				OFFSET 0.365767 -0.048012 -1.787590
				CHANNELS 6 Xposition Yposition Zposition Zrotation Yrotation Xrotation
				JOINT LeftArm
				{
					OFFSET 1.305160 0.000000 0.000000
					CHANNELS 6 Xposition Yposition Zposition Zrotation Yrotation Xrotation
					JOINT LeftForeArm
					{
						OFFSET 2.559210 0.000000 0.000000
						CHANNELS 6 Xposition Yposition Zposition Zrotation Yrotation Xrotation
						JOINT LeftHand
						{
							OFFSET 2.378450 0.000000 0.000000
							CHANNELS 6 Xposition Yposition Zposition Zrotation Yrotation Xrotation
							End Site
							{
								OFFSET 1.362267 0.000000 0.000000
							}
						}
					}
				}
			}
			JOINT RightShoulder
			{
				OFFSET -0.360721 -0.048012 -1.787590
				CHANNELS 6 Xposition Yposition Zposition Zrotation Yrotation Xrotation
				JOINT RightArm
				{
					OFFSET -1.305160 0.000000 0.000000
					CHANNELS 6 Xposition Yposition Zposition Zrotation Yrotation Xrotation
					JOINT RightForeArm
					{
						OFFSET -2.559210 0.000000 0.000000
						CHANNELS 6 Xposition Yposition Zposition Zrotation Yrotation Xrotation
						JOINT RightHand
						{
							OFFSET -2.378450 0.000000 0.000000
							CHANNELS 6 Xposition Yposition Zposition Zrotation Yrotation Xrotation
							End Site
							{
								OFFSET -1.362267 0.000000 0.000000
							}
						}
					}
				}
			}
		}
	}
	JOINT LeftUpLeg
	{
		OFFSET 0.908180 0.000000 0.000000
		CHANNELS 6 Xposition Yposition Zposition Zrotation Yrotation Xrotation
		JOINT LeftLeg
		{
			OFFSET 0.000000 -0.000003 3.819490
			CHANNELS 6 Xposition Yposition Zposition Zrotation Yrotation Xrotation
			JOINT LeftFoot
			{
				OFFSET 0.000000 -0.000003 4.004300
				CHANNELS 6 Xposition Yposition Zposition Zrotation Yrotation Xrotation
				JOINT LeftToeBase
				{
					OFFSET 0.000000 1.362270 0.590317
					CHANNELS 6 Xposition Yposition Zposition Zrotation Yrotation Xrotation
					End Site
					{
						OFFSET 0.000000 0.363271 0.000000
					}
				}
			}
		}
	}
	JOINT RightUpLeg
	{
		OFFSET -0.908180 0.000000 0.000000
		CHANNELS 6 Xposition Yposition Zposition Zrotation Yrotation Xrotation
		JOINT RightLeg
		{
			OFFSET 0.000000 -0.000003 3.819490
			CHANNELS 6 Xposition Yposition Zposition Zrotation Yrotation Xrotation
			JOINT RightFoot
			{
				OFFSET 0.000000 -0.000003 4.004300
				CHANNELS 6 Xposition Yposition Zposition Zrotation Yrotation Xrotation
				JOINT RightToeBase
				{
					OFFSET 0.000000 1.362270 0.590317
					CHANNELS 6 Xposition Yposition Zposition Zrotation Yrotation Xrotation
					End Site
					{
						OFFSET 0.000000 0.363271 0.000000
					}
				}
			}
		}
	}
}
MOTION
Frames: 9
Frame Time: 0.016667
-1.660254 1.982770 -7.952991 2.489480 -0.653870 7.387974 -0.000000 -0.000000 -0.744707 -9.444579 -5.394182 -21.585754 0.000000 -0.000000 -2.032238 -1.528854 10.442538 21.252615 0.000000 0.000000 -2.213882 2.302553 7.018407 0.471878 -0.000000 0.181636 -1.407679 1.157740 -1.417136 7.371098 0.365767 -0.048012 -1.787592 -1.423121 13.374920 -3.081553 1.305159 -0.000000 0.000002 9.724412 -48.616125 4.595662 2.559211 -0.000000 0.000001 73.301877 30.899748 -9.450707 2.378450 0.000001 0.000001 -25.725115 8.221288 -34.571166 -0.360721 -0.048012 -1.787590 -7.263049 -7.966935 -4.503300 -1.305160 -0.000000 0.000001 -50.583537 41.368755 -20.733540 -2.559211 0.000001 0.000001 -124.145272 -43.109132 55.284162 -2.378449 -0.000000 0.000001 26.291666 -52.347034 -31.185595 0.908180 -0.000000 0.000001 -2.039344 0.909120 -9.051832 -0.000000 -0.000002 3.819489 -4.428730 3.222977 10.468272 -0.000001 -0.000001 4.004299 -22.161565 1.664034 -4.745374 0.000000 1.362270 0.590316 0.000006 0.000001 0.000001 -0.908180 0.000000 0.000002 -0.720452 -18.196765 -19.750663 -0.000001 -0.000001 3.819487 -12.597498 10.469268 20.202900 0.000001 -0.000000 4.004299 47.938202 3.181254 1.405312 -0.000001 1.362269 0.590318 0.000008 -0.000003 0.000003 
-1.642591 1.976746 -7.954000 2.640703 -0.674875 7.366891 0.000000 -0.000000 -0.744706 -9.334152 -5.251033 -21.541541 0.000000 0.000001 -2.032237 -1.527692 10.243746 21.165667 0.000000 0.000001 -2.213881 2.088218 7.199589 0.694968 -0.000000 0.181636 -1.407681 0.851022 -1.637449 7.188228 0.365767 -0.048012 -1.787592 -1.136786 13.308262 -3.302830 1.305161 0.000000 0.000003 10.965241 -48.175879 1.624292 2.559211 -0.000000 0.000002 72.972109 31.763183 -9.257015 2.378450 0.000001 0.000001 -27.246260 10.644710 -35.608911 -0.360721 -0.048012 -1.787591 -7.172575 -7.894891 -4.335724 -1.305161 -0.000000 0.000000 -50.914546 41.823130 -21.176329 -2.559210 -0.000001 0.000000 -123.787330 -42.758238 54.974116 -2.378449 -0.000002 0.000000 25.963028 -52.632546 -30.503119 0.908180 -0.000000 0.000001 -2.064424 0.810112 -9.131996 -0.000000 -0.000001 3.819490 -4.744503 3.255860 10.600642 -0.000001 -0.000002 4.004299 -21.961065 1.704665 -4.799055 0.000000 1.362270 0.590316 -0.000001 -0.000000 -0.000001 -0.908180 -0.000000 0.000002 -1.106748 -18.164934 -19.868788 -0.000000 -0.000002 3.819490 -11.991203 10.651266 20.658570 0.000001 -0.000001 4.004299 48.000483 3.251294 0.520907 -0.000001 1.362270 0.590316 0.000001 0.000000 0.000006 
-1.626782 1.970096 -7.955175 2.766390 -0.707407 7.313243 0.000000 0.000000 -0.744704 -9.173071 -5.109010 -21.456331 0.000000 -0.000000 -2.032238 -1.501802 10.076551 21.090326 0.000000 0.000000 -2.213880 1.840206 7.325435 0.920797 0.000000 0.181636 -1.407677 0.525300 -1.817835 6.979082 0.365767 -0.048012 -1.787588 -0.838757 13.265577 -3.622363 1.305160 0.000000 0.000000 11.926227 -47.705887 -0.770610 2.559211 0.000000 -0.000001 72.650325 32.802475 -9.085504 2.378449 0.000002 0.000000 -28.846488 13.007468 -36.866875 -0.360721 -0.048012 -1.787592 -7.130629 -7.857804 -4.214881 -1.305160 -0.000000 -0.000001 -51.155750 42.342542 -21.247764 -2.559211 0.000001 -0.000001 -123.517428 -42.613226 54.971558 -2.378451 0.000001 0.000003 25.826906 -52.971194 -30.018729 0.908180 0.000000 0.000002 -1.953595 0.859913 -9.215013 -0.000000 -0.000003 3.819491 -4.749944 3.035809 10.839944 -0.000001 -0.000001 4.004301 -22.182228 1.810424 -4.917909 0.000000 1.362270 0.590316 0.000004 0.000000 0.000001 -0.908180 -0.000000 0.000001 -1.543023 -18.103292 -19.910389 -0.000000 -0.000002 3.819488 -11.283257 10.756831 21.087191 0.000002 -0.000001 4.004301 47.933414 3.465366 -0.144626 -0.000000 1.362270 0.590316 -0.000003 -0.000001 0.000006 
-1.611688 1.964398 -7.956424 2.876661 -0.742189 7.268400 -0.000000 0.000000 -0.744706 -8.980978 -4.949488 -21.392588 0.000000 0.000001 -2.032242 -1.468106 9.891296 21.013478 -0.000000 0.000002 -2.213879 1.578754 7.484643 1.165752 0.000000 0.181636 -1.407683 0.164059 -2.080650 6.777194 0.365767 -0.048012 -1.787589 -0.592551 13.218614 -3.851918 1.305160 -0.000000 0.000001 12.932886 -47.034547 -3.223877 2.559211 -0.000000 -0.000001 72.266181 33.565568 -9.058830 2.378449 -0.000000 -0.000001 -30.569160 15.433770 -38.136286 -0.360721 -0.048012 -1.787591 -7.061879 -7.809888 -4.011403 -1.305160 -0.000000 0.000001 -51.460264 42.775931 -21.378736 -2.559211 0.000000 0.000000 -123.116414 -42.435238 54.748611 -2.378448 0.000000 0.000001 25.536525 -53.380152 -29.500314 0.908180 -0.000000 0.000002 -1.971830 0.873494 -9.310222 -0.000000 -0.000003 3.819490 -4.733606 2.871894 11.071038 -0.000001 -0.000002 4.004300 -22.305192 1.877071 -5.011744 0.000000 1.362270 0.590316 0.000003 0.000000 0.000002 -0.908180 0.000000 0.000000 -1.969978 -18.033501 -19.909190 -0.000001 -0.000002 3.819488 -11.019285 10.913490 21.397098 0.000001 -0.000001 4.004302 47.897234 3.511279 -0.697519 -0.000000 1.362271 0.590316 0.000001 -0.000000 0.000005 
-1.597036 1.959503 -7.957079 2.987035 -0.771741 7.194176 -0.000000 0.000000 -0.744705 -8.771662 -4.800614 -21.273466 0.000000 0.000002 -2.032238 -1.426887 9.734501 20.892883 -0.000000 0.000000 -2.213881 1.300465 7.645914 1.407813 0.000000 0.181637 -1.407678 -0.222051 -2.384488 6.611381 0.365767 -0.048012 -1.787593 -0.329883 13.216206 -4.127469 1.305161 0.000000 0.000001 13.676013 -46.315106 -5.347832 2.559211 -0.000000 -0.000001 71.818298 34.222198 -8.940406 2.378448 0.000002 -0.000001 -32.226783 17.711881 -39.229461 -0.360721 -0.048012 -1.787591 -6.947365 -7.732444 -3.799694 -1.305160 -0.000000 0.000002 -51.721884 43.190397 -21.219588 -2.559211 -0.000000 -0.000000 -122.714484 -42.336207 54.745257 -2.378448 -0.000002 0.000003 25.428745 -53.582329 -28.912331 0.908180 0.000000 0.000003 -2.134320 0.828422 -9.363793 -0.000000 -0.000002 3.819491 -4.863461 2.827343 11.260254 -0.000001 -0.000002 4.004297 -22.136011 1.942812 -5.104256 0.000000 1.362270 0.590316 -0.000006 -0.000000 0.000001 -0.908180 0.000000 0.000004 -2.351526 -17.955235 -19.885397 0.000000 -0.000001 3.819488 -10.783757 11.178347 21.721407 0.000002 -0.000001 4.004302 47.897941 3.541556 -1.374530 -0.000001 1.362269 0.590317 -0.000000 0.000000 0.000005 
-1.583374 1.955321 -7.957636 3.079590 -0.789376 7.116371 -0.000000 -0.000000 -0.744704 -8.518147 -4.671430 -21.175818 0.000000 0.000000 -2.032238 -1.361708 9.613893 20.815895 -0.000000 0.000000 -2.213883 0.996728 7.739462 1.630896 0.000000 0.181638 -1.407679 -0.617834 -2.657108 6.452598 0.365767 -0.048012 -1.787592 -0.084104 13.187926 -4.398374 1.305160 -0.000000 0.000001 14.284336 -45.499975 -6.977720 2.559209 0.000000 0.000003 71.275551 35.063743 -8.787791 2.378449 0.000001 -0.000001 -33.957891 20.336533 -40.580398 -0.360721 -0.048012 -1.787592 -6.913649 -7.724840 -3.619109 -1.305161 -0.000000 -0.000002 -51.954766 43.568735 -20.927775 -2.559210 0.000001 0.000001 -122.327185 -42.387003 54.864563 -2.378452 -0.000001 -0.000000 25.390907 -54.090751 -28.553676 0.908180 -0.000000 0.000003 -2.341381 0.735498 -9.429168 -0.000000 -0.000001 3.819489 -5.039492 2.882184 11.463679 -0.000001 -0.000001 4.004299 -21.850311 1.939204 -5.173258 -0.000000 1.362270 0.590317 0.000002 -0.000000 0.000004 -0.908180 -0.000000 0.000004 -2.731466 -17.882791 -19.839353 -0.000000 -0.000001 3.819489 -10.831220 11.376119 21.912826 0.000001 -0.000001 4.004302 47.857479 3.190491 -1.881255 0.000001 1.362269 0.590317 0.000002 0.000001 0.000003 
-1.570978 1.951320 -7.957819 3.167965 -0.793789 7.073189 -0.000000 -0.000000 -0.744705 -8.265156 -4.559002 -21.101490 0.000000 0.000001 -2.032237 -1.303071 9.477584 20.714007 0.000000 0.000000 -2.213880 0.733820 7.923170 1.895277 0.000000 0.181636 -1.407685 -1.015999 -3.099079 6.268349 0.365767 -0.048012 -1.787588 0.163661 13.216390 -4.695858 1.305160 -0.000000 -0.000001 14.708013 -44.577790 -8.434640 2.559206 -0.000000 0.000002 70.611998 35.629487 -8.524383 2.378450 0.000002 -0.000002 -35.630771 23.190678 -41.712372 -0.360721 -0.048012 -1.787588 -6.883161 -7.677187 -3.466297 -1.305160 0.000000 0.000000 -51.979304 44.026703 -20.568978 -2.559210 -0.000000 -0.000001 -121.849974 -42.264323 54.804495 -2.378451 0.000001 0.000004 25.223489 -54.544839 -27.951318 0.908180 0.000000 0.000002 -2.418988 0.742248 -9.508106 -0.000000 -0.000003 3.819491 -5.144646 2.732589 11.673589 -0.000001 -0.000001 4.004300 -21.772929 2.005480 -5.286452 -0.000000 1.362270 0.590318 0.000001 0.000001 0.000004 -0.908180 -0.000000 0.000002 -3.046280 -17.783589 -19.834256 -0.000000 -0.000001 3.819490 -11.341042 11.761655 22.141033 0.000002 -0.000001 4.004299 48.090816 2.804376 -2.621422 0.000001 1.362270 0.590316 -0.000000 0.000001 0.000004 
-1.559341 1.947053 -7.957623 3.254218 -0.797201 7.054359 0.000000 0.000000 -0.744707 -8.014358 -4.481849 -21.013878 0.000000 0.000000 -2.032237 -1.240721 9.402146 20.553943 -0.000000 0.000001 -2.213881 0.455531 8.051956 2.141730 0.000000 0.181636 -1.407676 -1.412678 -3.495607 6.122683 0.365767 -0.048012 -1.787591 0.427813 13.266590 -4.993183 1.305161 -0.000000 -0.000001 14.960317 -43.631003 -9.620366 2.559211 -0.000000 -0.000000 69.855131 36.157498 -8.165878 2.378449 0.000001 -0.000001 -37.067095 25.693278 -42.594610 -0.360721 -0.048012 -1.787591 -6.786333 -7.664331 -3.221098 -1.305160 -0.000000 -0.000001 -52.031882 44.439960 -20.066058 -2.559212 0.000000 -0.000000 -121.421980 -42.212229 54.795005 -2.378451 -0.000000 0.000003 25.060248 -54.755192 -27.389163 0.908180 0.000000 0.000001 -2.501248 0.763379 -9.628283 -0.000000 -0.000002 3.819489 -5.132260 2.567692 11.940497 -0.000001 -0.000003 4.004298 -21.728109 2.076942 -5.421987 0.000000 1.362269 0.590316 0.000002 -0.000002 -0.000005 -0.908180 0.000000 0.000001 -3.354550 -17.692702 -19.862972 -0.000001 -0.000002 3.819489 -11.970328 12.102966 22.301922 0.000001 -0.000001 4.004299 48.320546 2.657539 -3.219310 0.000000 1.362270 0.590316 0.000004 0.000001 0.000006 
-1.548185 1.943812 -7.956625 3.324621 -0.775688 7.028173 -0.000000 0.000000 -0.744707 -7.737625 -4.448333 -20.933317 0.000000 0.000000 -2.032238 -1.161037 9.377302 20.417589 0.000000 0.000000 -2.213880 0.155227 8.158395 2.388194 -0.000000 0.181636 -1.407678 -1.826073 -3.886505 5.963002 0.365767 -0.048012 -1.787588 0.628508 13.298899 -5.237533 1.305160 -0.000000 -0.000000 15.214299 -42.562290 -10.637660 2.559210 -0.000000 0.000001 68.920201 36.575895 -7.657699 2.378447 0.000001 -0.000000 -38.727313 28.753911 -43.511010 -0.360721 -0.048012 -1.787587 -6.700111 -7.640973 -3.014971 -1.305161 0.000001 -0.000000 -51.930707 44.815006 -19.356278 -2.559212 -0.000001 -0.000001 -120.961066 -42.193562 54.835993 -2.378450 0.000001 0.000002 24.813768 -54.931708 -26.736321 0.908180 0.000000 0.000001 -2.746494 0.708946 -9.745815 -0.000000 -0.000003 3.819488 -5.110919 2.462930 12.199559 -0.000001 -0.000002 4.004302 -21.608427 2.036537 -5.569058 0.000000 1.362268 0.590317 -0.000003 0.000001 0.000003 -0.908180 0.000000 0.000001 -3.497338 -17.561186 -19.989406 0.000001 -0.000002 3.819489 -12.649898 12.374229 22.595934 0.000000 -0.000000 4.004302 48.445302 2.461456 -3.676937 0.000000 1.362270 0.590316 0.000000 -0.000000 0.000004 
